<svg width="134" height="134" viewBox="0 0 134 134" fill="none" xmlns="http://www.w3.org/2000/svg">
<circle cx="67" cy="67" r="66.5" stroke="#18171C"/>
<path d="M51.3485 53.5498H51.4154C52.0226 53.5496 52.6085 53.7764 53.0606 54.1867C53.5127 54.597 53.7993 55.1618 53.8653 55.7729C53.8468 55.954 53.8468 56.1365 53.8653 56.3176C53.8003 56.9295 53.5142 57.4955 53.062 57.9068C52.6098 58.318 52.0233 58.5455 51.4154 58.5454H51.3485C50.7114 58.5454 50.1004 58.8015 49.6497 59.2573C49.1989 59.7132 48.9454 60.3316 48.9448 60.9766V61.0958C48.9445 61.4156 49.0065 61.7323 49.1271 62.0278C49.2478 62.3233 49.4248 62.5919 49.648 62.8181C49.8713 63.0443 50.1363 63.2238 50.4281 63.3462C50.7199 63.4687 51.0326 63.5317 51.3485 63.5317H51.4686C52.1067 63.5317 52.7186 63.2751 53.1698 62.8183C53.621 62.3614 53.8745 61.7419 53.8745 61.0958V61.0374C53.8728 60.4161 54.0999 59.8164 54.5115 59.3556C54.9231 58.8948 55.4896 58.6059 56.1004 58.5454C56.4548 58.5818 56.8128 58.5377 57.1484 58.4164C57.4839 58.2951 57.7885 58.0996 58.0399 57.8441L58.1231 57.7599C58.3667 57.5122 58.5547 57.2142 58.6742 56.8862C58.7938 56.5582 58.8421 56.208 58.8158 55.8594C58.857 55.235 59.1291 54.6492 59.5778 54.2186C60.0264 53.7881 60.6188 53.5445 61.2369 53.5362C61.855 53.528 62.4535 53.7557 62.9133 54.1741C63.373 54.5925 63.6602 55.1708 63.7178 55.7939C63.6818 56.1532 63.7253 56.516 63.8451 56.856C63.9649 57.1961 64.158 57.5049 64.4104 57.7599L64.4936 57.8441C64.7456 58.1002 65.0509 58.2961 65.3873 58.4175C65.7236 58.5388 66.0825 58.5825 66.4377 58.5454C67.03 58.6036 67.5815 58.8769 67.9902 59.3148C68.3989 59.7527 68.6373 60.3255 68.6613 60.9275C68.6613 60.9415 68.6613 60.9556 68.6613 60.9696V61.0888C68.6613 61.1028 68.6613 61.1169 68.6613 61.1309C68.6373 61.7329 68.3989 62.3057 67.9902 62.7436C67.5815 63.1815 67.03 63.4548 66.4377 63.513C66.0825 63.4759 65.7236 63.5196 65.3873 63.6409C65.0509 63.7623 64.7456 63.9582 64.4936 64.2143L64.4104 64.2985C64.187 64.5245 64.0097 64.7929 63.8887 65.0883C63.7678 65.3837 63.7055 65.7004 63.7055 66.0202C63.7055 66.34 63.7678 66.6566 63.8887 66.9521C64.0097 67.2475 64.187 67.5159 64.4104 67.7419L64.4936 67.8284C64.7168 68.0546 64.9819 68.2341 65.2737 68.3566C65.5655 68.4791 65.8783 68.5421 66.1941 68.5421C66.51 68.5421 66.8228 68.4791 67.1146 68.3566C67.4064 68.2341 67.6715 68.0546 67.8947 67.8284L67.9802 67.7419C68.2244 67.4946 68.4128 67.1966 68.5324 66.8685C68.652 66.5404 68.6999 66.19 68.6728 65.8413C68.719 65.2123 68.9988 64.6244 69.4559 64.1958C69.913 63.7673 70.5135 63.53 71.1365 63.5317H71.1873C71.5034 63.532 71.8164 63.4692 72.1084 63.3469C72.4005 63.2246 72.6658 63.0452 72.8893 62.8189C73.1128 62.5927 73.29 62.324 73.4108 62.0284C73.5316 61.7327 73.5936 61.4158 73.5933 61.0958V60.9766C73.593 60.657 73.5305 60.3406 73.4095 60.0455C73.2884 59.7504 73.1111 59.4823 72.8877 59.2565C72.6642 59.0308 72.3991 58.8518 72.1074 58.7298C71.8156 58.6077 71.503 58.5451 71.1873 58.5454H71.1365C70.5136 58.5452 69.9139 58.3062 69.4581 57.8763C69.0022 57.4465 68.7241 56.8578 68.6798 56.2288C68.689 56.1097 68.689 55.9901 68.6798 55.8711C68.723 55.2412 69.0006 54.6513 69.4566 54.2205C69.9125 53.7897 70.5129 53.55 71.1365 53.5498H71.1873C71.5033 53.5498 71.8162 53.4868 72.1081 53.3643C72.4 53.2419 72.6652 53.0625 72.8886 52.8363C73.112 52.6101 73.2893 52.3416 73.4102 52.0461C73.5311 51.7505 73.5933 51.4338 73.5933 51.1139V50.9947C73.5936 50.6747 73.5316 50.3578 73.4108 50.0621C73.29 49.7665 73.1128 49.4978 72.8893 49.2716C72.6658 49.0453 72.4005 48.8659 72.1084 48.7436C71.8164 48.6213 71.5034 48.5585 71.1873 48.5588H71.1365C70.5138 48.5581 69.9144 48.3188 69.4586 47.8891C69.0029 47.4594 68.7247 46.871 68.6798 46.2421C68.7069 45.8931 68.659 45.5423 68.5394 45.2138C68.4198 44.8854 68.2314 44.587 67.9871 44.3393L67.9016 44.2551C67.6784 44.0288 67.4133 43.8494 67.1215 43.7269C66.8297 43.6044 66.5169 43.5414 66.2011 43.5414C65.8852 43.5414 65.5724 43.6044 65.2806 43.7269C64.9888 43.8494 64.7237 44.0288 64.5005 44.2551L64.4174 44.3393C64.1608 44.5972 63.9653 44.9106 63.8453 45.2559C63.7253 45.6012 63.6841 45.9696 63.7247 46.3333C63.6585 46.9418 63.3737 47.5044 62.9246 47.9143C62.4755 48.3242 61.8933 48.5527 61.2887 48.5565H61.2725C60.65 48.5557 60.0509 48.3164 59.5955 47.8866C59.1402 47.4568 58.8624 46.8685 58.8181 46.2398C58.8446 45.8909 58.7964 45.5402 58.6768 45.2118C58.5573 44.8834 58.3692 44.585 58.1254 44.3369L58.0423 44.2528C57.819 44.0265 57.5539 43.847 57.2621 43.7246C56.9703 43.6021 56.6576 43.5391 56.3417 43.5391C56.0258 43.5391 55.713 43.6021 55.4212 43.7246C55.1294 43.847 54.8643 44.0265 54.6411 44.2528L54.5557 44.3369C54.3321 44.5631 54.1548 44.8317 54.0338 45.1273C53.9128 45.423 53.8505 45.7398 53.8505 46.0598C53.8505 46.3798 53.9128 46.6967 54.0338 46.9923C54.1548 47.2879 54.3321 47.5565 54.5557 47.7827L54.6411 47.8668C54.893 48.1224 55.198 48.3179 55.5339 48.4392C55.8698 48.5605 56.2282 48.6046 56.583 48.5681C57.1755 48.6253 57.7274 48.8979 58.1367 49.3354C58.5459 49.773 58.7847 50.3458 58.8088 50.9479C58.8088 50.9643 58.8088 50.976 58.8088 50.9923V51.1116C58.8088 51.1256 58.8088 51.1396 58.8088 51.1536C58.7855 51.7553 58.5481 52.3281 58.1402 52.7664C57.7324 53.2046 57.1817 53.4787 56.5899 53.5381C56.4302 53.5229 56.2694 53.5229 56.1096 53.5381C55.5012 53.4795 54.9361 53.1938 54.5243 52.7366C54.1124 52.2795 53.8833 51.6835 53.8814 51.0648V51.0648V50.9947C53.8814 50.6742 53.819 50.3569 53.6976 50.0609C53.5763 49.7649 53.3985 49.496 53.1743 49.2698C52.9502 49.0435 52.6841 48.8642 52.3914 48.7422C52.0987 48.6202 51.7851 48.5579 51.4686 48.5588H51.3485C51.0326 48.5588 50.7199 48.6218 50.4281 48.7443C50.1363 48.8667 49.8713 49.0462 49.648 49.2724C49.4248 49.4986 49.2478 49.7672 49.1271 50.0627C49.0065 50.3582 48.9445 50.6749 48.9448 50.9947V51.1139C48.9448 51.7595 49.198 52.3787 49.6487 52.8355C50.0994 53.2922 50.7108 53.5491 51.3485 53.5498ZM68.6659 50.9503C68.6659 50.9666 68.6659 50.9783 68.6659 50.9947V51.1139C68.6659 51.1279 68.6659 51.1419 68.6659 51.156C68.6419 51.7579 68.4036 52.3308 67.9948 52.7687C67.5861 53.2065 67.0346 53.4798 66.4424 53.5381C66.2811 53.5217 66.1187 53.5217 65.9575 53.5381C65.3507 53.4763 64.7879 53.1896 64.3774 52.733C63.9669 52.2764 63.7377 51.6822 63.7339 51.0648V51.0648C63.7343 50.4462 63.9614 49.8498 64.3714 49.3911C64.7814 48.9324 65.3449 48.6441 65.9529 48.5822C66.1133 48.5985 66.275 48.5985 66.4354 48.5822C67.0269 48.638 67.5784 48.9084 67.9884 49.3436C68.3983 49.7789 68.639 50.3495 68.6659 50.9503V50.9503Z" fill="#474A51"/>
<path d="M74.356 54.2349L74.2728 54.3193C73.3333 55.2707 73.3336 56.813 74.2734 57.7641L74.3566 57.8484C75.2964 58.7995 76.8198 58.7992 77.7592 57.8478L77.8424 57.7635C78.7819 56.812 78.7816 55.2697 77.8418 54.3186L77.7586 54.2343C76.8188 53.2832 75.2954 53.2835 74.356 54.2349Z" fill="#474A51"/>
<path d="M81.0489 48.5596H80.9288H80.8157C80.2324 48.5207 79.6819 48.2732 79.2623 47.8613C78.8427 47.4493 78.5814 46.8997 78.5252 46.3107C78.5618 45.9508 78.5187 45.587 78.3988 45.2461C78.279 44.9052 78.0855 44.5956 77.8325 44.3401L77.7493 44.2559C77.5259 44.0296 77.2606 43.85 76.9686 43.7275C76.6766 43.605 76.3637 43.542 76.0476 43.542C75.7315 43.542 75.4186 43.605 75.1266 43.7275C74.8346 43.85 74.5693 44.0296 74.3459 44.2559L74.2628 44.3401C74.0392 44.5663 73.8619 44.8348 73.7409 45.1305C73.6199 45.4261 73.5576 45.7429 73.5576 46.0629C73.5576 46.3829 73.6199 46.6998 73.7409 46.9954C73.8619 47.291 74.0392 47.5596 74.2628 47.7858L74.3459 47.87C74.5822 48.1074 74.8648 48.2924 75.1757 48.4132C75.4866 48.5339 75.8189 48.5878 76.1515 48.5713C76.7892 48.5949 77.3929 48.8681 77.8357 49.3333C78.2784 49.7985 78.5256 50.4196 78.5252 51.0656V51.1123C78.5258 51.7582 78.7794 52.3774 79.2305 52.8341C79.6816 53.2908 80.2932 53.5476 80.9311 53.5482H81.0512C81.6891 53.5476 82.3007 53.2908 82.7518 52.8341C83.2029 52.3774 83.4565 51.7582 83.4572 51.1123V50.9955C83.4572 50.6754 83.3949 50.3584 83.2738 50.0627C83.1527 49.7671 82.9753 49.4984 82.7517 49.2722C82.528 49.046 82.2625 48.8666 81.9703 48.7443C81.6781 48.6221 81.365 48.5593 81.0489 48.5596V48.5596Z" fill="#474A51"/>
<path d="M61.3279 58.541H61.2102C59.8814 58.541 58.8042 59.6316 58.8042 60.9769V61.0961C58.8042 62.4414 59.8814 63.532 61.2102 63.532H61.3279C62.6567 63.532 63.7339 62.4414 63.7339 61.0961V60.9769C63.7339 59.6316 62.6567 58.541 61.3279 58.541Z" fill="#474A51"/>
<path d="M81.049 58.5459H80.9289C80.292 58.5465 79.6813 58.8028 79.2308 59.2585C78.7802 59.7143 78.5265 60.3323 78.5253 60.9771V61.0379C78.5253 61.6574 78.2977 62.2547 77.8867 62.7136C77.4756 63.1725 76.9107 63.4601 76.3017 63.5205C75.9469 63.4841 75.5885 63.5281 75.2527 63.6494C74.9168 63.7707 74.6118 63.9663 74.3598 64.2218L74.2767 64.306C74.0532 64.532 73.876 64.8004 73.755 65.0958C73.634 65.3912 73.5718 65.7079 73.5718 66.0277C73.5718 66.3475 73.634 66.6641 73.755 66.9596C73.876 67.255 74.0532 67.5234 74.2767 67.7494L74.3598 67.8359C74.6122 68.0909 74.9172 68.286 75.253 68.4073C75.5888 68.5286 75.9469 68.5729 76.3017 68.5372C76.9109 68.5971 77.4761 68.8845 77.8873 69.3436C78.2984 69.8026 78.5258 70.4002 78.5253 71.0198V71.0806C78.5277 71.7246 78.7819 72.3414 79.2324 72.7961C79.6828 73.2509 80.2928 73.5065 80.9289 73.5071H81.049C81.6867 73.5071 82.2983 73.2508 82.7494 72.7945C83.2006 72.3382 83.4543 71.7192 83.455 71.0736V70.952C83.4543 70.3062 83.2007 69.687 82.7496 69.2303C82.2985 68.7736 81.6869 68.5168 81.049 68.5161H80.989C80.3771 68.5162 79.7871 68.2857 79.3338 67.8696C78.8806 67.4535 78.5964 66.8815 78.5368 66.265C78.553 66.1033 78.553 65.9404 78.5368 65.7787C78.5964 65.162 78.8804 64.5897 79.3336 64.1732C79.7869 63.7567 80.3769 63.5257 80.989 63.5252H81.049C81.6871 63.5252 82.2991 63.2685 82.7503 62.8117C83.2015 62.3549 83.455 61.7353 83.455 61.0893V60.9701C83.4519 60.3261 83.1971 59.7095 82.7462 59.2552C82.2953 58.8009 81.6851 58.5459 81.049 58.5459V58.5459Z" fill="#474A51"/>
<path d="M58.0399 74.2085C57.788 73.953 57.483 73.7575 57.1471 73.6362C56.8112 73.5149 56.4529 73.4708 56.0981 73.5072C55.4893 73.4474 54.9244 73.1603 54.5133 72.7017C54.1022 72.2432 53.8745 71.6462 53.8745 71.0269V71.0269C53.8745 70.4077 54.1022 69.8107 54.5133 69.3522C54.9244 68.8936 55.4893 68.6065 56.0981 68.5467C56.4528 68.5824 56.811 68.5381 57.1468 68.4168C57.4826 68.2955 57.7876 68.1004 58.0399 67.8454L58.1231 67.7589C58.3465 67.5328 58.5238 67.2645 58.6448 66.969C58.7657 66.6736 58.828 66.3569 58.828 66.0371C58.828 65.7173 58.7657 65.4007 58.6448 65.1053C58.5238 64.8098 58.3465 64.5414 58.1231 64.3154L58.0399 64.2313C57.8167 64.005 57.5516 63.8255 57.2598 63.7031C56.968 63.5806 56.6552 63.5176 56.3394 63.5176C56.0235 63.5176 55.7107 63.5806 55.4189 63.7031C55.1271 63.8255 54.862 64.005 54.6388 64.2313L54.5534 64.3154C54.3008 64.5704 54.1076 64.8792 53.9878 65.2193C53.8679 65.5594 53.8245 65.9222 53.8607 66.2814C53.8005 66.8982 53.5159 67.4702 53.0623 67.8863C52.6086 68.3023 52.0183 68.5327 51.4062 68.5326H51.3485C50.7124 68.5332 50.1024 68.7889 49.652 69.2436C49.2015 69.6983 48.9473 70.3151 48.9448 70.9592V71.0807C48.9467 71.7249 49.2007 72.3421 49.6513 72.7969C50.1019 73.2518 50.7122 73.5072 51.3485 73.5072H51.4085C52.021 73.5072 52.6116 73.7379 53.0653 74.1545C53.519 74.571 53.8033 75.1436 53.863 75.7608C53.8268 76.12 53.8703 76.4829 53.9901 76.8229C54.1099 77.163 54.3031 77.4718 54.5557 77.7268L54.6411 77.8109C54.8643 78.0372 55.1294 78.2167 55.4212 78.3391C55.713 78.4616 56.0258 78.5246 56.3417 78.5246C56.6576 78.5246 56.9703 78.4616 57.2621 78.3391C57.5539 78.2167 57.819 78.0372 58.0422 77.8109L58.1254 77.7268C58.3489 77.5006 58.5263 77.232 58.6472 76.9364C58.7682 76.6407 58.8305 76.3239 58.8305 76.0039C58.8305 75.6839 58.7682 75.367 58.6472 75.0714C58.5263 74.7758 58.3489 74.5072 58.1254 74.281L58.0399 74.2085Z" fill="#474A51"/>
<path d="M73.5932 70.9593C73.5932 70.3133 73.3397 69.6937 72.8885 69.2369C72.4373 68.7801 71.8253 68.5234 71.1872 68.5234H71.0694C70.4315 68.5241 69.8199 68.7809 69.3688 69.2376C68.9177 69.6943 68.6641 70.3135 68.6635 70.9593V71.0201C68.6647 71.6404 68.4375 72.2389 68.0264 72.6987C67.6153 73.1586 67.0497 73.4469 66.4399 73.5074C66.2794 73.491 66.1178 73.491 65.9573 73.5074C65.3484 73.447 64.7834 73.1594 64.3724 72.7005C63.9614 72.2416 63.7337 71.6442 63.7338 71.0248V71.0107V70.964C63.7338 70.318 63.4803 69.6984 63.0291 69.2416C62.5779 68.7848 61.9659 68.5281 61.3278 68.5281H61.2077C60.5696 68.5281 59.9577 68.7848 59.5064 69.2416C59.0552 69.6984 58.8018 70.318 58.8018 70.964V71.0855C58.8048 71.7293 59.0597 72.3457 59.5107 72.7996C59.9616 73.2535 60.5718 73.508 61.2077 73.5074H61.2655C61.8779 73.5074 62.4685 73.7381 62.9222 74.1546C63.3759 74.5712 63.6603 75.1438 63.7199 75.7609C63.6839 76.1201 63.7274 76.483 63.8473 76.823C63.9671 77.1631 64.1602 77.4719 64.4126 77.7269L64.4957 77.8111C64.719 78.0373 64.9841 78.2168 65.2759 78.3393C65.5676 78.4618 65.8804 78.5248 66.1963 78.5248C66.5122 78.5248 66.8249 78.4618 67.1167 78.3393C67.4085 78.2168 67.6736 78.0373 67.8969 77.8111L67.9823 77.7269C68.2348 77.472 68.4281 77.1632 68.5479 76.8231C68.6677 76.483 68.7111 76.1202 68.675 75.7609C68.7348 75.1426 69.0201 74.569 69.4753 74.1523C69.9304 73.7355 70.5227 73.5056 71.1364 73.5074H71.1941C71.51 73.5077 71.8228 73.445 72.1147 73.3228C72.4066 73.2007 72.6718 73.0215 72.8952 72.7955C73.1187 72.5695 73.296 72.3011 73.4169 72.0057C73.5378 71.7103 73.6001 71.3936 73.6001 71.0739L73.5932 70.9593Z" fill="#474A51"/>
<path d="M74.3566 74.2073L74.2734 74.2916C73.3336 75.2427 73.3333 76.785 74.2728 77.7364L74.356 77.8207C75.2954 78.7721 76.8188 78.7724 77.7586 77.8213L77.8418 77.737C78.7816 76.7859 78.7819 75.2436 77.8424 74.2922L77.7592 74.2079C76.8198 73.2564 75.2964 73.2562 74.3566 74.2073Z" fill="#474A51"/>
<path d="M77.3914 83.6924H72.7527C71.8622 83.693 71.0084 84.0512 70.3786 84.6885C69.7487 85.3257 69.3943 86.1899 69.3931 87.0914V87.2083C69.3943 88.1098 69.7487 88.974 70.3786 89.6112C71.0084 90.2484 71.8622 90.6067 72.7527 90.6073H77.3937C78.2839 90.6067 79.1375 90.2484 79.767 89.6111C80.3965 88.9737 80.7504 88.1096 80.751 87.2083V87.0914C80.7504 86.1897 80.3962 85.3252 79.7662 84.6878C79.1362 84.0504 78.282 83.6924 77.3914 83.6924V83.6924ZM79.8897 87.0914V87.2083C79.8891 87.8789 79.6257 88.5219 79.1573 88.9961C78.6889 89.4704 78.0538 89.737 77.3914 89.7377H72.7527C72.0902 89.737 71.4551 89.4704 70.9867 88.9961C70.5183 88.5219 70.2549 87.8789 70.2543 87.2083V87.0914C70.2549 86.4207 70.5183 85.7777 70.9867 85.3035C71.4551 84.8293 72.0902 84.5626 72.7527 84.562H77.3937C78.0557 84.5632 78.6902 84.8302 79.1581 85.3044C79.626 85.7785 79.8891 86.4211 79.8897 87.0914V87.0914Z" fill="#474A51"/>
<path d="M39.3579 87.0914V87.2083C39.3591 88.1098 39.7136 88.974 40.3434 89.6112C40.9732 90.2484 41.8271 90.6067 42.7175 90.6073H45.673V89.7377H42.7175C42.0549 89.737 41.4195 89.4704 40.9508 88.9963C40.482 88.5221 40.2181 87.8791 40.2169 87.2083V87.0914C40.2181 86.4205 40.482 85.7775 40.9508 85.3034C41.4195 84.8292 42.0549 84.5626 42.7175 84.562H45.673V83.6924H42.7175C41.8271 83.693 40.9732 84.0512 40.3434 84.6885C39.7136 85.3257 39.3591 86.1899 39.3579 87.0914V87.0914Z" fill="#474A51"/>
<path d="M51.4962 87.0914C51.7312 86.7767 51.8748 86.4018 51.9109 86.0089C51.947 85.616 51.874 85.2208 51.7003 84.8676C51.5266 84.5144 51.259 84.2173 50.9276 84.0097C50.5962 83.802 50.2142 83.6922 49.8245 83.6924H47.0698V90.6096H47.9565V87.933H49.6282L51.1752 90.6096H52.2027L50.5587 87.8044C50.9328 87.6636 51.2584 87.4159 51.4962 87.0914V87.0914ZM51.0344 85.8127C51.037 85.9777 51.0069 86.1415 50.9459 86.2945C50.8848 86.4475 50.7939 86.5865 50.6788 86.7033C50.5696 86.8212 50.4371 86.9144 50.2898 86.9769C50.1426 87.0393 49.984 87.0696 49.8245 87.0657H47.9565V84.541H49.8245C49.9843 84.5378 50.1431 84.5689 50.2903 84.6321C50.4375 84.6954 50.5699 84.7894 50.6788 84.908C50.7963 85.0259 50.8886 85.1671 50.9498 85.3228C51.0109 85.4784 51.0397 85.6452 51.0344 85.8127V85.8127Z" fill="#474A51"/>
<path d="M57.3286 83.6924L55.4283 86.8646L53.5188 83.6924H52.5098L54.9781 87.7646V90.6096H55.8624V87.7833L58.34 83.6924H57.3286Z" fill="#474A51"/>
<path d="M63.8862 84.5503H65.9158V90.6096H66.8002V84.5503H68.8298V83.6924H63.8862V84.5503Z" fill="#474A51"/>
<path d="M86.1496 88.8844L82.6422 83.6924H81.9033V90.6096H82.79V85.4153L86.2973 90.6096H87.0362V83.6924H86.1496V88.8844Z" fill="#474A51"/>
<path d="M93.0719 88.4686C93.0354 88.1624 92.9141 87.8729 92.7221 87.6334C92.5301 87.3939 92.2752 87.2142 91.9867 87.1151C91.9058 87.0754 91.3586 86.858 91.257 86.8229L90.7398 86.6452C90.3552 86.5352 89.9882 86.3699 89.6499 86.1543C89.5506 86.0796 89.4716 85.9806 89.4203 85.8665C89.369 85.7524 89.3471 85.6271 89.3567 85.5021C89.3486 85.3573 89.3747 85.2126 89.433 85.08C89.4912 84.9475 89.5798 84.8309 89.6915 84.74C89.9581 84.5412 90.2845 84.4421 90.6151 84.4595C90.9457 84.4403 91.2733 84.5314 91.5478 84.7189C91.8222 84.9064 92.0283 85.1799 92.1344 85.4974L92.1829 85.6167L92.9333 85.1959L92.8918 85.1C92.7029 84.6639 92.3994 84.2887 92.0144 84.0153C91.6022 83.7276 91.111 83.5787 90.6105 83.5899C90.0602 83.5735 89.5221 83.7567 89.0935 84.1065C88.888 84.2806 88.7247 84.5001 88.6162 84.7481C88.5077 84.9962 88.4569 85.2661 88.4677 85.5372C88.4597 85.8272 88.5309 86.1137 88.6735 86.3653C88.8161 86.617 89.0246 86.8238 89.2759 86.9632C89.7179 87.1981 90.182 87.3876 90.6613 87.5289C91.0887 87.6526 91.4979 87.8334 91.8781 88.0666C91.9877 88.1452 92.0755 88.251 92.1333 88.3737C92.1911 88.4965 92.2169 88.6322 92.2083 88.7679C92.2142 88.9193 92.1837 89.0699 92.1193 89.2067C92.055 89.3436 91.9587 89.4625 91.8389 89.5533C91.524 89.7738 91.145 89.8808 90.7629 89.8572C90.3484 89.8755 89.9387 89.761 89.5922 89.5299C89.2881 89.3086 89.0694 88.9871 88.9734 88.6206L88.9342 88.4803L88.1606 88.9362L88.1907 89.0227C88.3601 89.536 88.6973 89.9755 89.1466 90.2687C89.627 90.5847 90.19 90.7476 90.7629 90.7362C91.3697 90.7631 91.9665 90.5728 92.4485 90.1985C92.7656 89.9398 92.9829 89.5766 93.0626 89.1723C93.1097 88.9404 93.1128 88.7017 93.0719 88.4686Z" fill="#474A51"/>
<path d="M62.0621 87.1104C61.9744 87.0683 61.4364 86.8532 61.3325 86.8181L60.8176 86.6405C60.4324 86.5299 60.0647 86.3646 59.7254 86.1496C59.6264 86.0745 59.5476 85.9754 59.4963 85.8615C59.4451 85.7475 59.423 85.6222 59.4322 85.4973C59.4244 85.3526 59.4508 85.208 59.509 85.0755C59.5672 84.943 59.6556 84.8264 59.767 84.7353C60.0337 84.5368 60.36 84.4377 60.6906 84.4547C61.0211 84.4355 61.3488 84.5266 61.6232 84.7141C61.8977 84.9016 62.1038 85.1751 62.2099 85.4927L62.2584 85.6119L63.0157 85.1841L62.9742 85.0882C62.7853 84.6521 62.4818 84.2769 62.0967 84.0036C61.6839 83.7155 61.1918 83.5666 60.6906 83.5781C60.141 83.5622 59.6039 83.7454 59.1759 84.0947C58.9704 84.2688 58.8071 84.4883 58.6986 84.7363C58.5901 84.9844 58.5393 85.2543 58.5501 85.5254C58.5422 85.8151 58.6131 86.1014 58.7553 86.3529C58.8974 86.6045 59.1053 86.8115 59.356 86.9514C59.7983 87.1856 60.2623 87.3751 60.7414 87.5171C61.1688 87.6408 61.578 87.8217 61.9582 88.0548C62.0675 88.1336 62.155 88.2394 62.2124 88.3622C62.2698 88.4849 62.2952 88.6206 62.2861 88.7561C62.2922 88.9073 62.262 89.0578 62.1981 89.1946C62.1342 89.3314 62.0384 89.4505 61.9189 89.5416C61.604 89.762 61.2251 89.8691 60.843 89.8455C60.4277 89.8638 60.0173 89.7493 59.67 89.5182C59.3667 89.2964 59.1489 88.975 59.0535 88.6088L59.0119 88.4686L58.2407 88.9361L58.2707 89.0226C58.4341 89.5389 58.7674 89.9828 59.2151 90.2803C59.6955 90.5963 60.2586 90.7592 60.8314 90.7478C61.4382 90.7743 62.0348 90.584 62.517 90.2101C62.8322 89.9531 63.0486 89.5925 63.1289 89.1909V89.1909C63.1787 88.9604 63.1849 88.7224 63.1473 88.4896C63.1154 88.1788 62.9962 87.8837 62.8039 87.6393C62.6116 87.3949 62.3542 87.2113 62.0621 87.1104V87.1104Z" fill="#474A51"/>
</svg>
