<svg width="30" height="auto" enable-background="new 0 0 46.412 46.412" viewBox="0 0 46.412 46.412" xmlns="http://www.w3.org/2000/svg"><path d="m39.652 16.446c0-9.083-7.363-16.446-16.446-16.446-9.082 0-16.445 7.363-16.445 16.446 0 1.775.285 3.484.806 5.086s1.384 6.212 15.536 24.742c8.103-10.611 12.018-17.178 13.885-20.857 1.682-2.581 2.664-5.661 2.664-8.971zm-16.628 10.598c-5.752 0-10.416-4.663-10.416-10.416 0-5.752 4.664-10.415 10.416-10.415s10.416 4.663 10.416 10.415c-.001 5.753-4.664 10.416-10.416 10.416z"/><path d="m23.206 46.412c-.036-.047-.07-.092-.105-.139-.036.047-.07.091-.106.139z"/></svg>