<?xml version="1.0" encoding="utf-8"?><svg xmlns="http://www.w3.org/2000/svg" xmlns:xlink="http://www.w3.org/1999/xlink"><symbol viewBox="0 0 9 17" id="Vector_(Stroke)" xmlns="http://www.w3.org/2000/svg"><path fill-rule="evenodd" clip-rule="evenodd" d="M8.507 15.858l-7.2-7.2 7.2-7.2L7.8.75.246 8.304a.5.5 0 000 .707L7.8 16.565l.707-.707z"/></symbol><symbol viewBox="0 0 17 2" id="Vector_(Stroke)-1" xmlns="http://www.w3.org/2000/svg"><path fill-rule="evenodd" clip-rule="evenodd" d="M16.13.158H.73v1h15.4v-1z"/></symbol><symbol viewBox="0 0 9 7" id="arrow" xmlns="http://www.w3.org/2000/svg"><path d="M4.5 7L.603.25h7.794L4.5 7z"/></symbol><symbol viewBox="0 0 18 17" id="next" xmlns="http://www.w3.org/2000/svg"><path fill-rule="evenodd" clip-rule="evenodd" d="M8.616 15.858l7.2-7.2-7.2-7.2.707-.707 7.554 7.553a.5.5 0 010 .707l-7.554 7.554-.707-.707z"/><path fill-rule="evenodd" clip-rule="evenodd" d="M.87 8.158h15.4v1H.87v-1z"/></symbol><symbol viewBox="0 0 17 17" id="prev" xmlns="http://www.w3.org/2000/svg"><path fill-rule="evenodd" clip-rule="evenodd" d="M8.507 15.858l-7.2-7.2 7.2-7.2L7.8.75.246 8.304a.5.5 0 000 .707L7.8 16.565l.707-.707z"/><path fill-rule="evenodd" clip-rule="evenodd" d="M16.13 8.158H.73v1h15.4v-1z"/></symbol><symbol viewBox="0 0 17 17" id="ptev" xmlns="http://www.w3.org/2000/svg"><path fill-rule="evenodd" clip-rule="evenodd" d="M8.507 15.858l-7.2-7.2 7.2-7.2L7.8.75.246 8.304a.5.5 0 000 .707L7.8 16.565l.707-.707z"/><path fill-rule="evenodd" clip-rule="evenodd" d="M16.13 8.158H.73v1h15.4v-1z"/></symbol><symbol viewBox="0 0 6 27" id="scroll" xmlns="http://www.w3.org/2000/svg"><path fill-rule="evenodd" clip-rule="evenodd" d="M3 22.666v-22h1v22H3z"/><path d="M3.334 26.666l-2.599-4.5h5.197l-2.598 4.5z"/></symbol><symbol viewBox="0 0 37 37" id="search" xmlns="http://www.w3.org/2000/svg"><circle cx="16.264" cy="16.379" r="10.5" transform="rotate(45 16.264 16.379)"/><path d="M24.749 24.157l4.243 4.243-1.415 1.414-4.242-4.243z"/></symbol></svg>