<svg id="Слой_1" data-name="Слой 1" xmlns="http://www.w3.org/2000/svg" viewBox="0 0 290.17 282.33"><defs><style>.cls-1{fill:#474a51;}</style></defs><path class="cls-1" d="M77.3,83.63h.29A10.67,10.67,0,0,1,88.2,93.14a11.34,11.34,0,0,0,0,2.33A10.67,10.67,0,0,1,77.59,105H77.3A10.41,10.41,0,0,0,66.89,115.4v.51A10.41,10.41,0,0,0,77.3,126.33h.52a10.42,10.42,0,0,0,10.42-10.42v-.25h0A10.68,10.68,0,0,1,97.88,105a10.38,10.38,0,0,0,8.4-3l.36-.36a10.4,10.4,0,0,0,3-8.13,10.65,10.65,0,0,1,21.23-.28,10.4,10.4,0,0,0,3,8.41l.36.36a10.38,10.38,0,0,0,8.42,3,10.67,10.67,0,0,1,9.63,10.19c0,.06,0,.12,0,.18v.51c0,.06,0,.12,0,.18a10.67,10.67,0,0,1-9.63,10.19,10.38,10.38,0,0,0-8.42,3l-.36.36a10.41,10.41,0,0,0,0,14.73l.36.37a10.41,10.41,0,0,0,14.73,0l.37-.37a10.35,10.35,0,0,0,3-8.13A10.67,10.67,0,0,1,163,126.33h.22a10.41,10.41,0,0,0,10.42-10.42v-.51A10.41,10.41,0,0,0,163.22,105H163a10.67,10.67,0,0,1-10.64-9.91,9.77,9.77,0,0,0,0-1.53A10.67,10.67,0,0,1,163,83.63h.22a10.42,10.42,0,0,0,10.42-10.42V72.7a10.41,10.41,0,0,0-10.42-10.42H163a10.68,10.68,0,0,1-10.64-9.91,10.37,10.37,0,0,0-3-8.14l-.37-.36a10.41,10.41,0,0,0-14.73,0l-.36.36a10.38,10.38,0,0,0-3,8.53,10.68,10.68,0,0,1-10.55,9.51h-.07a10.67,10.67,0,0,1-10.63-9.91,10.41,10.41,0,0,0-3-8.14l-.36-.36a10.41,10.41,0,0,0-14.73,0l-.37.36a10.42,10.42,0,0,0,0,14.74l.37.36a10.4,10.4,0,0,0,8.41,3,10.66,10.66,0,0,1,9.64,10.18c0,.07,0,.12,0,.19v.51c0,.06,0,.12,0,.18A10.67,10.67,0,0,1,100,83.58a11.12,11.12,0,0,0-2.08,0A10.66,10.66,0,0,1,88.27,73h0V72.7A10.42,10.42,0,0,0,77.82,62.28H77.3A10.41,10.41,0,0,0,66.89,72.7v.51A10.42,10.42,0,0,0,77.3,83.63Zm75-11.12c0,.07,0,.12,0,.19v.51c0,.06,0,.12,0,.18a10.67,10.67,0,0,1-9.63,10.19,10.53,10.53,0,0,0-2.1,0A10.7,10.7,0,0,1,130.94,73h0V73a10.68,10.68,0,0,1,9.61-10.62,10.43,10.43,0,0,0,2.09,0A10.66,10.66,0,0,1,152.3,72.51Z"/><rect class="cls-1" x="173.64" y="83.63" width="21.35" height="21.35" rx="10.42" transform="translate(-12.69 157.97) rotate(-45.01)"/><path class="cls-1" d="M205.93,62.28h-.52l-.49,0A10.67,10.67,0,0,1,195,52.66a10.4,10.4,0,0,0-3-8.43l-.36-.36a10.42,10.42,0,0,0-14.74,0l-.36.36a10.42,10.42,0,0,0,0,14.74l.36.36a10.38,10.38,0,0,0,7.82,3A10.67,10.67,0,0,1,195,73v.2a10.43,10.43,0,0,0,10.42,10.42h.52a10.43,10.43,0,0,0,10.42-10.42V72.7A10.42,10.42,0,0,0,205.93,62.28Z"/><rect class="cls-1" x="109.59" y="104.98" width="21.35" height="21.35" rx="10.42"/><path class="cls-1" d="M205.93,105h-.52A10.42,10.42,0,0,0,195,115.4v.26a10.67,10.67,0,0,1-9.63,10.62,10.4,10.4,0,0,0-8.41,3l-.36.36a10.41,10.41,0,0,0,0,14.73l.36.37a10.44,10.44,0,0,0,8.41,3A10.66,10.66,0,0,1,195,158.36v.26A10.42,10.42,0,0,0,205.41,169h.52a10.42,10.42,0,0,0,10.42-10.41v-.52a10.43,10.43,0,0,0-10.42-10.42h-.26a10.67,10.67,0,0,1-10.62-9.63,10.33,10.33,0,0,0,0-2.08,10.68,10.68,0,0,1,10.62-9.64h.26a10.42,10.42,0,0,0,10.42-10.42v-.51A10.42,10.42,0,0,0,205.93,105Z"/><path class="cls-1" d="M106.28,172a10.4,10.4,0,0,0-8.41-3,10.66,10.66,0,0,1-9.63-10.61h0a10.66,10.66,0,0,1,9.63-10.61,10.44,10.44,0,0,0,8.41-3l.36-.37a10.41,10.41,0,0,0,0-14.73l-.36-.36a10.41,10.41,0,0,0-14.73,0l-.37.36a10.39,10.39,0,0,0-3,8.41,10.68,10.68,0,0,1-10.63,9.63H77.3A10.42,10.42,0,0,0,66.89,158.1v.52A10.41,10.41,0,0,0,77.3,169h.26a10.68,10.68,0,0,1,10.63,9.64,10.39,10.39,0,0,0,3,8.41l.37.36a10.41,10.41,0,0,0,14.73,0l.36-.36a10.42,10.42,0,0,0,0-14.74Z"/><path class="cls-1" d="M173.64,158.1a10.42,10.42,0,0,0-10.42-10.42h-.51a10.43,10.43,0,0,0-10.42,10.42v.26A10.67,10.67,0,0,1,142.66,169a10.43,10.43,0,0,0-2.09,0,10.67,10.67,0,0,1-9.63-10.62v-.06h0v-.2a10.42,10.42,0,0,0-10.42-10.42H120a10.42,10.42,0,0,0-10.42,10.42v.52A10.41,10.41,0,0,0,120,169h.25a10.68,10.68,0,0,1,10.63,9.64,10.4,10.4,0,0,0,3,8.41l.36.36a10.41,10.41,0,0,0,14.73,0l.37-.36a10.39,10.39,0,0,0,3-8.41A10.68,10.68,0,0,1,163,169h.25a10.41,10.41,0,0,0,10.42-10.41Z"/><rect class="cls-1" x="173.64" y="169.03" width="21.35" height="21.35" rx="10.42" transform="translate(-73.09 182.94) rotate(-44.99)"/><path class="cls-1" d="M190.09,212.57H170a14.56,14.56,0,0,0-14.55,14.54v.5A14.56,14.56,0,0,0,170,242.15h20.1a14.55,14.55,0,0,0,14.54-14.54v-.5A14.55,14.55,0,0,0,190.09,212.57Zm10.82,14.54v.5a10.83,10.83,0,0,1-10.82,10.82H170a10.83,10.83,0,0,1-10.82-10.82v-.5A10.83,10.83,0,0,1,170,216.29h20.1A10.83,10.83,0,0,1,200.91,227.11Z"/><path class="cls-1" d="M25.37,227.11v.5a14.56,14.56,0,0,0,14.55,14.54h12.8v-3.72H39.92a10.84,10.84,0,0,1-10.83-10.82v-.5a10.84,10.84,0,0,1,10.83-10.82h12.8v-3.72H39.92A14.56,14.56,0,0,0,25.37,227.11Z"/><path class="cls-1" d="M77.94,227.11a9.07,9.07,0,0,0-7.24-14.54H58.77v29.59h3.84V230.71h7.24l6.7,11.45H81l-7.12-12A8.93,8.93,0,0,0,77.94,227.11Zm-2-5.47a5.27,5.27,0,0,1-1.54,3.81A4.91,4.91,0,0,1,70.7,227H62.61v-10.8H70.7a4.92,4.92,0,0,1,3.7,1.57A5.21,5.21,0,0,1,75.94,221.64Z"/><polygon class="cls-1" points="103.2 212.57 94.97 226.14 86.7 212.57 82.33 212.57 93.02 229.99 93.02 242.16 96.85 242.16 96.85 230.07 107.58 212.57 103.2 212.57"/><polygon class="cls-1" points="131.6 216.24 140.39 216.24 140.39 242.16 144.22 242.16 144.22 216.24 153.01 216.24 153.01 212.57 131.6 212.57 131.6 216.24"/><polygon class="cls-1" points="228.02 234.78 212.83 212.57 209.63 212.57 209.63 242.16 213.47 242.16 213.47 219.94 228.66 242.16 231.86 242.16 231.86 212.57 228.02 212.57 228.02 234.78"/><path class="cls-1" d="M258,233a7,7,0,0,0-4.7-5.79c-.35-.17-2.72-1.1-3.16-1.25l-2.24-.76a18.1,18.1,0,0,1-4.72-2.1,3.17,3.17,0,0,1-1.27-2.79,3.9,3.9,0,0,1,1.45-3.26,6.2,6.2,0,0,1,4-1.2,6.55,6.55,0,0,1,6.58,4.44l.21.51L257.4,219l-.18-.41a11.12,11.12,0,0,0-3.8-4.64,10.31,10.31,0,0,0-6.08-1.82,10,10,0,0,0-6.57,2.21,7.58,7.58,0,0,0-2.71,6.12,6.74,6.74,0,0,0,3.5,6.1,32.39,32.39,0,0,0,6,2.42,21.68,21.68,0,0,1,5.27,2.3,3.41,3.41,0,0,1,1.43,3,4,4,0,0,1-1.6,3.36,7.4,7.4,0,0,1-4.66,1.3,8.54,8.54,0,0,1-5.07-1.4,7,7,0,0,1-2.68-3.89l-.17-.6L236.73,235l.13.37A10.18,10.18,0,0,0,241,240.7a12.4,12.4,0,0,0,7,2,11.19,11.19,0,0,0,7.3-2.3,7.53,7.53,0,0,0,2.66-4.39A8,8,0,0,0,258,233Z"/><path class="cls-1" d="M123.7,227.19c-.38-.18-2.71-1.1-3.16-1.25l-2.23-.76a18.36,18.36,0,0,1-4.73-2.1,3.19,3.19,0,0,1-1.27-2.79,3.92,3.92,0,0,1,1.45-3.26,6.22,6.22,0,0,1,4-1.2,6.55,6.55,0,0,1,6.58,4.44l.21.51,3.28-1.83-.18-.41a11.12,11.12,0,0,0-3.8-4.64,10.32,10.32,0,0,0-6.09-1.82,10,10,0,0,0-6.56,2.21,7.58,7.58,0,0,0-2.71,6.12,6.75,6.75,0,0,0,3.49,6.1,32.9,32.9,0,0,0,6,2.42,21.68,21.68,0,0,1,5.27,2.3,3.4,3.4,0,0,1,1.42,3,4,4,0,0,1-1.59,3.36,7.4,7.4,0,0,1-4.66,1.3,8.57,8.57,0,0,1-5.08-1.4,7,7,0,0,1-2.67-3.89l-.18-.6L107.15,235l.13.37a10.13,10.13,0,0,0,4.09,5.38,12.4,12.4,0,0,0,7,2,11.21,11.21,0,0,0,7.3-2.3,7.51,7.51,0,0,0,2.65-4.36v0a8,8,0,0,0,.08-3A7,7,0,0,0,123.7,227.19Z"/></svg>